P3
3 2
255
255 26 200 25 02 40 70 90 70 20 20 20 20 20 20 20 20 20 